<svg width="42" height="43" viewBox="0 0 42 43" fill="none" xmlns="http://www.w3.org/2000/svg">
<mask id="path-1-inside-1_1041_18736" fill="white">
<path d="M0 21.5C0 9.90202 9.40202 0.5 21 0.5C32.598 0.5 42 9.90202 42 21.5C42 33.098 32.598 42.5 21 42.5C9.40202 42.5 0 33.098 0 21.5Z"/>
</mask>
<path d="M0 21.5C0 9.90202 9.40202 0.5 21 0.5C32.598 0.5 42 9.90202 42 21.5C42 33.098 32.598 42.5 21 42.5C9.40202 42.5 0 33.098 0 21.5Z" fill="white"/>
<path d="M21 42.5V40.5C10.5066 40.5 2 31.9934 2 21.5H0H-2C-2 34.2025 8.29745 44.5 21 44.5V42.5ZM42 21.5H40C40 31.9934 31.4934 40.5 21 40.5V42.5V44.5C33.7025 44.5 44 34.2025 44 21.5H42ZM21 0.5V2.5C31.4934 2.5 40 11.0066 40 21.5H42H44C44 8.79745 33.7025 -1.5 21 -1.5V0.5ZM21 0.5V-1.5C8.29745 -1.5 -2 8.79745 -2 21.5H0H2C2 11.0066 10.5066 2.5 21 2.5V0.5Z" fill="#030213" mask="url(#path-1-inside-1_1041_18736)"/>
<path d="M18.084 14.207V17.1237" stroke="#030213" stroke-width="1.45833" stroke-linecap="round" stroke-linejoin="round"/>
<path d="M23.916 14.207V17.1237" stroke="#030213" stroke-width="1.45833" stroke-linecap="round" stroke-linejoin="round"/>
<path d="M26.1042 15.668H15.8958C15.0904 15.668 14.4375 16.3209 14.4375 17.1263V27.3346C14.4375 28.1401 15.0904 28.793 15.8958 28.793H26.1042C26.9096 28.793 27.5625 28.1401 27.5625 27.3346V17.1263C27.5625 16.3209 26.9096 15.668 26.1042 15.668Z" stroke="#030213" stroke-width="1.45833" stroke-linecap="round" stroke-linejoin="round"/>
<path d="M14.4375 20.043H27.5625" stroke="#030213" stroke-width="1.45833" stroke-linecap="round" stroke-linejoin="round"/>
</svg>
