<svg width="42" height="43" viewBox="0 0 42 43" fill="none" xmlns="http://www.w3.org/2000/svg">
<mask id="path-1-inside-1_1041_18734" fill="white">
<path d="M0 21.5C0 9.90202 9.40202 0.5 21 0.5C32.598 0.5 42 9.90202 42 21.5C42 33.098 32.598 42.5 21 42.5C9.40202 42.5 0 33.098 0 21.5Z"/>
</mask>
<path d="M0 21.5C0 9.90202 9.40202 0.5 21 0.5C32.598 0.5 42 9.90202 42 21.5C42 33.098 32.598 42.5 21 42.5C9.40202 42.5 0 33.098 0 21.5Z" fill="white"/>
<path d="M21 42.5V40.5C10.5066 40.5 2 31.9934 2 21.5H0H-2C-2 34.2025 8.29745 44.5 21 44.5V42.5ZM42 21.5H40C40 31.9934 31.4934 40.5 21 40.5V42.5V44.5C33.7025 44.5 44 34.2025 44 21.5H42ZM21 0.5V2.5C31.4934 2.5 40 11.0066 40 21.5H42H44C44 8.79745 33.7025 -1.5 21 -1.5V0.5ZM21 0.5V-1.5C8.29745 -1.5 -2 8.79745 -2 21.5H0H2C2 11.0066 10.5066 2.5 21 2.5V0.5Z" fill="#030213" mask="url(#path-1-inside-1_1041_18734)"/>
<path d="M26.1048 22.9583C27.1913 21.8938 28.2923 20.6177 28.2923 18.9479C28.2923 17.8843 27.8698 16.8642 27.1177 16.1121C26.3656 15.36 25.3455 14.9375 24.2819 14.9375C22.9986 14.9375 22.0944 15.3021 21.0007 16.3958C19.9069 15.3021 19.0027 14.9375 17.7194 14.9375C16.6558 14.9375 15.6357 15.36 14.8836 16.1121C14.1315 16.8642 13.709 17.8843 13.709 18.9479C13.709 20.625 14.8027 21.901 15.8965 22.9583L21.0007 28.0625L26.1048 22.9583Z" stroke="#030213" stroke-width="1.45833" stroke-linecap="round" stroke-linejoin="round"/>
</svg>
