<svg width="42" height="43" viewBox="0 0 42 43" fill="none" xmlns="http://www.w3.org/2000/svg">
<mask id="path-1-inside-1_1041_18738" fill="white">
<path d="M0 21.5C0 9.90202 9.40202 0.5 21 0.5C32.598 0.5 42 9.90202 42 21.5C42 33.098 32.598 42.5 21 42.5C9.40202 42.5 0 33.098 0 21.5Z"/>
</mask>
<path d="M0 21.5C0 9.90202 9.40202 0.5 21 0.5C32.598 0.5 42 9.90202 42 21.5C42 33.098 32.598 42.5 21 42.5C9.40202 42.5 0 33.098 0 21.5Z" fill="white"/>
<path d="M21 42.5V40.5C10.5066 40.5 2 31.9934 2 21.5H0H-2C-2 34.2025 8.29745 44.5 21 44.5V42.5ZM42 21.5H40C40 31.9934 31.4934 40.5 21 40.5V42.5V44.5C33.7025 44.5 44 34.2025 44 21.5H42ZM21 0.5V2.5C31.4934 2.5 40 11.0066 40 21.5H42H44C44 8.79745 33.7025 -1.5 21 -1.5V0.5ZM21 0.5V-1.5C8.29745 -1.5 -2 8.79745 -2 21.5H0H2C2 11.0066 10.5066 2.5 21 2.5V0.5Z" fill="#030213" mask="url(#path-1-inside-1_1041_18738)"/>
<path d="M26.1048 28.0625V26.6042C26.1048 25.8306 25.7975 25.0888 25.2505 24.5418C24.7036 23.9948 23.9617 23.6875 23.1882 23.6875H18.8132C18.0396 23.6875 17.2977 23.9948 16.7508 24.5418C16.2038 25.0888 15.8965 25.8306 15.8965 26.6042V28.0625" stroke="#030213" stroke-width="1.45833" stroke-linecap="round" stroke-linejoin="round"/>
<path d="M21.0007 20.7708C22.6115 20.7708 23.9173 19.465 23.9173 17.8542C23.9173 16.2433 22.6115 14.9375 21.0007 14.9375C19.3898 14.9375 18.084 16.2433 18.084 17.8542C18.084 19.465 19.3898 20.7708 21.0007 20.7708Z" stroke="#030213" stroke-width="1.45833" stroke-linecap="round" stroke-linejoin="round"/>
</svg>
