<svg width="13" height="13" viewBox="0 0 13 13" fill="none" xmlns="http://www.w3.org/2000/svg">
<g clip-path="url(#clip0_905_15617)">
<path d="M9.75 9.5C9.91993 9.62747 10.0546 9.79615 10.1412 9.9901C10.2279 10.1841 10.2636 10.3969 10.2452 10.6085C10.2267 10.8201 10.1546 11.0236 10.0357 11.1996C9.91684 11.3756 9.75503 11.5185 9.5656 11.6146C9.37617 11.7107 9.16537 11.757 8.95309 11.7491C8.74081 11.7411 8.53406 11.6792 8.35236 11.5691C8.17066 11.4591 8.02 11.3045 7.91461 11.1201C7.80921 10.9357 7.75256 10.7274 7.75 10.515V6.75" stroke="#4A5565" stroke-linecap="round" stroke-linejoin="round"/>
<path d="M3.75 6.75H2.75C2.48478 6.75 2.23043 6.64464 2.04289 6.45711C1.85536 6.26957 1.75 6.01522 1.75 5.75V3.25C1.75 2.98478 1.85536 2.73043 2.04289 2.54289C2.23043 2.35536 2.48478 2.25 2.75 2.25H10.75C11.0152 2.25 11.2696 2.35536 11.4571 2.54289C11.6446 2.73043 11.75 2.98478 11.75 3.25V5.75C11.75 6.01522 11.6446 6.26957 11.4571 6.45711C11.2696 6.64464 11.0152 6.75 10.75 6.75H9.75" stroke="#4A5565" stroke-linecap="round" stroke-linejoin="round"/>
<path d="M3.75 4.75H9.75" stroke="#4A5565" stroke-linecap="round" stroke-linejoin="round"/>
<path d="M4.05 8.536C3.93225 8.65142 3.84487 8.79416 3.79563 8.95151C3.74639 9.10887 3.73683 9.27596 3.76779 9.43791C3.79874 9.59985 3.86927 9.75163 3.97307 9.87973C4.07688 10.0078 4.21075 10.1083 4.36277 10.1721C4.51478 10.236 4.68023 10.2612 4.84437 10.2457C5.00852 10.2301 5.16627 10.1742 5.30358 10.0829C5.44089 9.99167 5.5535 9.86786 5.63139 9.72253C5.70928 9.57721 5.75002 9.41488 5.75 9.25V6.75" stroke="#4A5565" stroke-linecap="round" stroke-linejoin="round"/>
</g>
<defs>
<clipPath id="clip0_905_15617">
<rect width="12" height="12" fill="white" transform="translate(0.75 0.75)"/>
</clipPath>
</defs>
</svg>
