<svg width="13" height="13" viewBox="0 0 13 13" fill="none" xmlns="http://www.w3.org/2000/svg">
<path d="M1.08398 10.8346V6.5013C1.08398 6.21398 1.19812 5.93843 1.40129 5.73527C1.60445 5.53211 1.88 5.41797 2.16732 5.41797H10.834C11.1213 5.41797 11.3969 5.53211 11.6 5.73527C11.8032 5.93843 11.9173 6.21398 11.9173 6.5013V10.8346" stroke="#101828" stroke-linecap="round" stroke-linejoin="round"/>
<path d="M2.16602 5.41797V3.2513C2.16602 2.96398 2.28015 2.68843 2.48332 2.48527C2.68648 2.28211 2.96203 2.16797 3.24935 2.16797H9.74935C10.0367 2.16797 10.3122 2.28211 10.5154 2.48527C10.7185 2.68843 10.8327 2.96398 10.8327 3.2513V5.41797" stroke="#101828" stroke-linecap="round" stroke-linejoin="round"/>
<path d="M6.5 2.16797V5.41797" stroke="#101828" stroke-linecap="round" stroke-linejoin="round"/>
<path d="M1.08398 9.75H11.9173" stroke="#101828" stroke-linecap="round" stroke-linejoin="round"/>
</svg>
