<svg width="18" height="18" viewBox="0 0 18 18" fill="none" xmlns="http://www.w3.org/2000/svg">
<path d="M10.1275 12.3295C10.2781 12.3987 10.4478 12.4145 10.6085 12.3743C10.7693 12.3342 10.9116 12.2404 11.012 12.1086L11.2708 11.7695C11.4067 11.5884 11.5828 11.4414 11.7853 11.3402C11.9878 11.2389 12.2111 11.1862 12.4375 11.1862H14.625C15.0118 11.1862 15.3827 11.3398 15.6562 11.6133C15.9297 11.8868 16.0833 12.2578 16.0833 12.6445V14.832C16.0833 15.2188 15.9297 15.5897 15.6562 15.8632C15.3827 16.1367 15.0118 16.2904 14.625 16.2904C11.144 16.2904 7.80564 14.9076 5.34422 12.4461C2.88281 9.98473 1.5 6.64633 1.5 3.16536C1.5 2.77859 1.65365 2.40766 1.92714 2.13417C2.20063 1.86068 2.57156 1.70703 2.95833 1.70703H5.14583C5.53261 1.70703 5.90354 1.86068 6.17703 2.13417C6.45052 2.40766 6.60417 2.77859 6.60417 3.16536V5.35286C6.60417 5.57926 6.55146 5.80255 6.45021 6.00505C6.34896 6.20755 6.20195 6.38369 6.02083 6.51953L5.67958 6.77547C5.54572 6.87768 5.45137 7.02308 5.41256 7.18697C5.37374 7.35087 5.39286 7.52314 5.46667 7.67453C6.46321 9.6986 8.10218 11.3355 10.1275 12.3295Z" stroke="#00A63E" stroke-width="1.45833" stroke-linecap="round" stroke-linejoin="round"/>
</svg>
