<svg width="35" height="36" viewBox="0 0 35 36" fill="none" xmlns="http://www.w3.org/2000/svg">
<rect y="0.5" width="35" height="35" rx="12.75" fill="#F9FAFB"/>
<path d="M13.125 25.2904V12.1654C13.125 11.7786 13.2786 11.4077 13.5521 11.1342C13.8256 10.8607 14.1966 10.707 14.5833 10.707H20.4167C20.8034 10.707 21.1744 10.8607 21.4479 11.1342C21.7214 11.4077 21.875 11.7786 21.875 12.1654V25.2904H13.125Z" stroke="#4A5565" stroke-width="1.45833" stroke-linecap="round" stroke-linejoin="round"/>
<path d="M13.1257 18H11.6673C11.2805 18 10.9096 18.1536 10.6361 18.4271C10.3626 18.7006 10.209 19.0716 10.209 19.4583V23.8333C10.209 24.2201 10.3626 24.591 10.6361 24.8645C10.9096 25.138 11.2805 25.2917 11.6673 25.2917H13.1257" stroke="#4A5565" stroke-width="1.45833" stroke-linecap="round" stroke-linejoin="round"/>
<path d="M21.875 15.8125H23.3333C23.7201 15.8125 24.091 15.9661 24.3645 16.2396C24.638 16.5131 24.7917 16.8841 24.7917 17.2708V23.8333C24.7917 24.2201 24.638 24.591 24.3645 24.8645C24.091 25.138 23.7201 25.2917 23.3333 25.2917H21.875" stroke="#4A5565" stroke-width="1.45833" stroke-linecap="round" stroke-linejoin="round"/>
<path d="M16.041 13.625H18.9577" stroke="#4A5565" stroke-width="1.45833" stroke-linecap="round" stroke-linejoin="round"/>
<path d="M16.041 16.543H18.9577" stroke="#4A5565" stroke-width="1.45833" stroke-linecap="round" stroke-linejoin="round"/>
<path d="M16.041 19.457H18.9577" stroke="#4A5565" stroke-width="1.45833" stroke-linecap="round" stroke-linejoin="round"/>
<path d="M16.041 22.375H18.9577" stroke="#4A5565" stroke-width="1.45833" stroke-linecap="round" stroke-linejoin="round"/>
</svg>
