<svg width="48" height="48" viewBox="0 0 48 48" fill="none" xmlns="http://www.w3.org/2000/svg">
<rect width="48" height="48" rx="14" fill="#101828"/>
<path d="M22.5421 29.8333C22.542 29.9688 22.5797 30.1017 22.6509 30.2169C22.7221 30.3322 22.8241 30.4254 22.9453 30.4859L24.4036 31.2151C24.5148 31.2707 24.6384 31.2969 24.7625 31.2913C24.8867 31.2856 25.0074 31.2484 25.1131 31.183C25.2188 31.1176 25.3061 31.0263 25.3666 30.9177C25.4271 30.8091 25.4588 30.6868 25.4587 30.5625V25.4583C25.4589 25.0969 25.5932 24.7485 25.8357 24.4805L31.1025 18.6552C31.1969 18.5506 31.2589 18.4209 31.2812 18.2818C31.3034 18.1427 31.2849 18.0001 31.2278 17.8713C31.1707 17.7425 31.0776 17.6329 30.9596 17.556C30.8416 17.479 30.7038 17.4378 30.5629 17.4375H17.4379C17.2969 17.4376 17.1589 17.4785 17.0407 17.5554C16.9225 17.6322 16.8291 17.7417 16.7718 17.8706C16.7145 17.9995 16.6959 18.1422 16.7181 18.2814C16.7403 18.4207 16.8024 18.5505 16.8968 18.6552L22.1651 24.4805C22.4076 24.7485 22.5419 25.0969 22.5421 25.4583V29.8333Z" stroke="white" stroke-width="1.45833" stroke-linecap="round" stroke-linejoin="round"/>
</svg>
