<svg width="25" height="24" viewBox="0 0 25 24" fill="none" xmlns="http://www.w3.org/2000/svg">
<path d="M10.7496 20C10.7496 20.1858 10.8012 20.368 10.8989 20.5261C10.9966 20.6842 11.1364 20.8119 11.3026 20.895L13.3026 21.895C13.4551 21.9712 13.6246 22.0072 13.7949 21.9994C13.9652 21.9917 14.1307 21.9406 14.2757 21.8509C14.4207 21.7613 14.5403 21.636 14.6233 21.4871C14.7062 21.3381 14.7497 21.1705 14.7496 21V14C14.7499 13.5044 14.9341 13.0265 15.2666 12.659L22.4896 4.67C22.6191 4.52656 22.7042 4.34868 22.7347 4.15788C22.7652 3.96708 22.7398 3.77153 22.6615 3.59487C22.5833 3.41822 22.4555 3.26802 22.2936 3.16245C22.1318 3.05688 21.9429 3.00046 21.7496 3H3.74964C3.55625 3.00007 3.36702 3.05622 3.20489 3.16164C3.04276 3.26706 2.91467 3.41723 2.83614 3.59396C2.75762 3.7707 2.73203 3.96641 2.76246 4.15739C2.7929 4.34837 2.87807 4.52643 3.00764 4.67L10.2326 12.659C10.5652 13.0265 10.7494 13.5044 10.7496 14V20Z" stroke="#0A0A0A" stroke-width="2" stroke-linecap="round" stroke-linejoin="round"/>
</svg>
