<svg width="21" height="22" viewBox="0 0 21 22" fill="none" xmlns="http://www.w3.org/2000/svg">
<rect y="0.75" width="21" height="21" rx="10.5" fill="#F0FDF4"/>
<path d="M12.0313 15.8438V11.7604C12.0313 11.625 11.9775 11.4952 11.8818 11.3995C11.786 11.3038 11.6562 11.25 11.5208 11.25H9.47917C9.3438 11.25 9.21397 11.3038 9.11825 11.3995C9.02253 11.4952 8.96875 11.625 8.96875 11.7604V15.8438" stroke="#00A63E" stroke-width="1.02083" stroke-linecap="round" stroke-linejoin="round"/>
<path d="M5.90625 10.2276C5.90621 10.0791 5.93858 9.93239 6.00108 9.79768C6.06358 9.66298 6.15472 9.54354 6.26814 9.44768L9.84105 6.38569C10.0253 6.22997 10.2588 6.14453 10.5 6.14453C10.7412 6.14453 10.9747 6.22997 11.1589 6.38569L14.7319 9.44768C14.8453 9.54354 14.9364 9.66298 14.9989 9.79768C15.0614 9.93239 15.0938 10.0791 15.0938 10.2276V14.8213C15.0938 15.0921 14.9862 15.3517 14.7948 15.5432C14.6033 15.7346 14.3437 15.8422 14.0729 15.8422H6.92708C6.65634 15.8422 6.39669 15.7346 6.20525 15.5432C6.0138 15.3517 5.90625 15.0921 5.90625 14.8213V10.2276Z" stroke="#00A63E" stroke-width="1.02083" stroke-linecap="round" stroke-linejoin="round"/>
</svg>
