<svg width="13" height="13" viewBox="0 0 13 13" fill="none" xmlns="http://www.w3.org/2000/svg">
<g clip-path="url(#clip0_1041_18464)">
<path d="M8.12565 11.9154C7.98199 11.9154 7.84422 11.8584 7.74263 11.7568C7.64105 11.6552 7.58398 11.5174 7.58398 11.3738V9.20711C7.58397 9.11796 7.60596 9.03018 7.64801 8.95156C7.69006 8.87295 7.75086 8.80593 7.82503 8.75645L9.45003 7.67311C9.53904 7.61372 9.64365 7.58203 9.75065 7.58203C9.85766 7.58203 9.96226 7.61372 10.0513 7.67311L11.6763 8.75645C11.7504 8.80593 11.8112 8.87295 11.8533 8.95156C11.8953 9.03018 11.9173 9.11796 11.9173 9.20711V11.3738C11.9173 11.5174 11.8602 11.6552 11.7587 11.7568C11.6571 11.8584 11.5193 11.9154 11.3757 11.9154H8.12565Z" stroke="#101828" stroke-linecap="round" stroke-linejoin="round"/>
<path d="M9.75065 5.41536C9.75065 4.26609 9.29411 3.16389 8.48145 2.35124C7.66879 1.53858 6.56659 1.08203 5.41732 1.08203C4.26805 1.08203 3.16585 1.53858 2.35319 2.35124C1.54053 3.16389 1.08398 4.26609 1.08398 5.41536C1.08398 8.11991 4.08428 10.9366 5.09178 11.8065C5.18568 11.8769 5.29993 11.9149 5.41732 11.9148" stroke="#101828" stroke-linecap="round" stroke-linejoin="round"/>
<path d="M9.75 11.918V10.293" stroke="#101828" stroke-linecap="round" stroke-linejoin="round"/>
<path d="M5.41602 7.04297C6.31348 7.04297 7.04102 6.31543 7.04102 5.41797C7.04102 4.52051 6.31348 3.79297 5.41602 3.79297C4.51855 3.79297 3.79102 4.52051 3.79102 5.41797C3.79102 6.31543 4.51855 7.04297 5.41602 7.04297Z" stroke="#101828" stroke-linecap="round" stroke-linejoin="round"/>
</g>
<defs>
<clipPath id="clip0_1041_18464">
<rect width="13" height="13" fill="white"/>
</clipPath>
</defs>
</svg>
