<svg width="21" height="22" viewBox="0 0 21 22" fill="none" xmlns="http://www.w3.org/2000/svg">
<rect y="0.75" width="21" height="21" rx="10.5" fill="#F0FDF4"/>
<path d="M14.0736 13.8034H15.0944C15.4007 13.8034 15.6048 13.5992 15.6048 13.293V11.7617C15.6048 11.3023 15.2475 10.894 14.8392 10.7919C13.9204 10.5367 12.5423 10.2305 12.5423 10.2305C12.5423 10.2305 11.8788 9.51589 11.4194 9.05651C11.1642 8.85234 10.8579 8.69922 10.5007 8.69922H6.92773C6.62148 8.69922 6.36628 8.90339 6.21315 9.15859L5.49857 10.6388C5.43098 10.8359 5.39648 11.0429 5.39648 11.2513V13.293C5.39648 13.5992 5.60065 13.8034 5.9069 13.8034H6.92773" stroke="#00A63E" stroke-width="1.02083" stroke-linecap="round" stroke-linejoin="round"/>
<path d="M7.94857 14.8229C8.51236 14.8229 8.9694 14.3659 8.9694 13.8021C8.9694 13.2383 8.51236 12.7812 7.94857 12.7812C7.38478 12.7812 6.92773 13.2383 6.92773 13.8021C6.92773 14.3659 7.38478 14.8229 7.94857 14.8229Z" stroke="#00A63E" stroke-width="1.02083" stroke-linecap="round" stroke-linejoin="round"/>
<path d="M8.96875 13.8008H12.0313" stroke="#00A63E" stroke-width="1.02083" stroke-linecap="round" stroke-linejoin="round"/>
<path d="M13.0521 14.8229C13.6159 14.8229 14.0729 14.3659 14.0729 13.8021C14.0729 13.2383 13.6159 12.7812 13.0521 12.7812C12.4883 12.7812 12.0312 13.2383 12.0312 13.8021C12.0312 14.3659 12.4883 14.8229 13.0521 14.8229Z" stroke="#00A63E" stroke-width="1.02083" stroke-linecap="round" stroke-linejoin="round"/>
</svg>
