<svg width="11" height="11" viewBox="0 0 11 11" fill="none" xmlns="http://www.w3.org/2000/svg">
<path d="M9.25 6.1877C9.25 8.3752 7.71875 9.46895 5.89875 10.1033C5.80345 10.1356 5.69992 10.1341 5.60563 10.0989C3.78125 9.46895 2.25 8.3752 2.25 6.1877V3.1252C2.25 3.00916 2.29609 2.89788 2.37814 2.81584C2.46019 2.73379 2.57147 2.6877 2.6875 2.6877C3.5625 2.6877 4.65625 2.1627 5.4175 1.4977C5.51019 1.41851 5.62809 1.375 5.75 1.375C5.87191 1.375 5.98981 1.41851 6.0825 1.4977C6.84813 2.16707 7.9375 2.6877 8.8125 2.6877C8.92853 2.6877 9.03981 2.73379 9.12186 2.81584C9.20391 2.89788 9.25 3.00916 9.25 3.1252V6.1877Z" stroke="#4A5565" stroke-width="0.875" stroke-linecap="round" stroke-linejoin="round"/>
</svg>
