<svg width="35" height="36" viewBox="0 0 35 36" fill="none" xmlns="http://www.w3.org/2000/svg">
<g clip-path="url(#clip0_1041_18386)">
<path fill-rule="evenodd" clip-rule="evenodd" d="M17.5 0.5C27.125 0.5 35 8.375 35 18C35 27.625 27.125 35.5 17.5 35.5C7.875 35.5 0 27.625 0 18C0 8.375 7.875 0.5 17.5 0.5Z" fill="#60B7FF"/>
<path fill-rule="evenodd" clip-rule="evenodd" d="M10.714 5.03711H24.5768L29.4794 9.94121V29.0066C29.4791 29.0338 29.4683 29.0597 29.4491 29.0789C29.4299 29.0981 29.404 29.109 29.3768 29.1092H10.714C10.6866 29.1091 10.6604 29.0983 10.6408 29.0792C10.6213 29.06 10.61 29.034 10.6094 29.0066V5.14177C10.6099 5.11419 10.6211 5.08788 10.6406 5.06837C10.6601 5.04886 10.6864 5.03765 10.714 5.03711Z" fill="#EAF6FF"/>
<path fill-rule="evenodd" clip-rule="evenodd" d="M24.5762 5.03711V8.84288C24.577 9.13403 24.6931 9.41301 24.899 9.61882C25.105 9.82464 25.384 9.94054 25.6752 9.94121H29.4787L24.5762 5.03711Z" fill="#BEC7CF"/>
<path d="M13.3194 7.90436C13.2228 7.90436 13.1301 7.86598 13.0618 7.79766C12.9935 7.72934 12.9551 7.63668 12.9551 7.54007C12.9551 7.44345 12.9935 7.3508 13.0618 7.28248C13.1301 7.21416 13.2228 7.17578 13.3194 7.17578H17.9119C18.0085 7.17578 18.1012 7.21416 18.1695 7.28248C18.2378 7.3508 18.2762 7.44345 18.2762 7.54007C18.2762 7.63668 18.2378 7.72934 18.1695 7.79766C18.1012 7.86598 18.0085 7.90436 17.9119 7.90436H13.3194ZM13.3194 10.3053C13.2236 10.304 13.1322 10.265 13.065 10.1968C12.9977 10.1286 12.96 10.0367 12.96 9.94095C12.96 9.84518 12.9977 9.75327 13.065 9.68508C13.1322 9.6169 13.2236 9.57794 13.3194 9.57663H21.6691C21.7173 9.57597 21.7652 9.5849 21.81 9.60292C21.8548 9.62093 21.8955 9.64766 21.9299 9.68156C21.9643 9.71545 21.9916 9.75584 22.0102 9.80037C22.0288 9.8449 22.0384 9.89268 22.0384 9.94095C22.0384 9.98922 22.0288 10.037 22.0102 10.0815C21.9916 10.1261 21.9643 10.1665 21.9299 10.2003C21.8955 10.2342 21.8548 10.261 21.81 10.279C21.7652 10.297 21.7173 10.3059 21.6691 10.3053H13.3194Z" fill="#BEC7CF"/>
<path d="M23.3346 18.4604C23.3001 18.4267 23.2726 18.3865 23.2537 18.3421C23.2348 18.2977 23.2249 18.25 23.2246 18.2017C23.2243 18.1535 23.2336 18.1057 23.2519 18.061C23.2702 18.0164 23.2973 17.9758 23.3314 17.9417C23.3655 17.9076 23.406 17.8806 23.4507 17.8623C23.4953 17.844 23.5431 17.8347 23.5914 17.835C23.6396 17.8353 23.6873 17.8452 23.7317 17.864C23.7761 17.8829 23.8163 17.9104 23.85 17.945L24.4178 18.5128L26.5126 16.418C26.5812 16.3511 26.6735 16.3139 26.7693 16.3145C26.8652 16.3151 26.957 16.3534 27.0248 16.4212C27.0926 16.489 27.1309 16.5808 27.1315 16.6767C27.1321 16.7726 27.0949 16.8648 27.028 16.9334L24.6755 19.2859C24.6418 19.32 24.6017 19.3471 24.5575 19.3656C24.5132 19.384 24.4658 19.3935 24.4178 19.3935C24.3699 19.3935 24.3224 19.384 24.2782 19.3656C24.2339 19.3471 24.1938 19.32 24.1601 19.2859L23.3346 18.4604Z" fill="#3BB54A"/>
<path d="M23.3341 22.3686C23.2662 22.3002 23.2283 22.2076 23.2285 22.1113C23.2287 22.0149 23.2671 21.9225 23.3353 21.8544C23.4034 21.7862 23.4957 21.7479 23.5921 21.7476C23.6885 21.7474 23.781 21.7853 23.8495 21.8531L24.4173 22.4209L26.512 20.3243C26.5807 20.2573 26.6729 20.2201 26.7688 20.2207C26.8647 20.2213 26.9565 20.2597 27.0242 20.3275C27.092 20.3953 27.1304 20.487 27.131 20.5829C27.1316 20.6788 27.0944 20.7711 27.0274 20.8397L24.675 23.1941C24.6064 23.262 24.5138 23.3002 24.4173 23.3002C24.3207 23.3002 24.2281 23.262 24.1596 23.1941L23.3341 22.3686Z" fill="#60B7FF"/>
<path d="M23.3346 26.2728C23.3001 26.2392 23.2726 26.199 23.2537 26.1545C23.2348 26.1101 23.2249 26.0624 23.2246 26.0142C23.2243 25.9659 23.2336 25.9181 23.2519 25.8735C23.2702 25.8289 23.2973 25.7883 23.3314 25.7542C23.3655 25.7201 23.406 25.6931 23.4507 25.6747C23.4953 25.6564 23.5431 25.6471 23.5914 25.6474C23.6396 25.6477 23.6873 25.6576 23.7317 25.6765C23.7761 25.6954 23.8163 25.7229 23.85 25.7574L24.4178 26.3252L26.5126 24.2286C26.5812 24.1616 26.6735 24.1244 26.7693 24.125C26.8652 24.1256 26.957 24.164 27.0248 24.2318C27.0926 24.2996 27.1309 24.3913 27.1315 24.4872C27.1321 24.5831 27.0949 24.6754 27.028 24.744L24.6755 27.0984C24.607 27.1663 24.5144 27.2044 24.4178 27.2044C24.3213 27.2044 24.2287 27.1663 24.1601 27.0984L23.3346 26.2728Z" fill="#3BB54A"/>
<path d="M23.3346 14.5567C23.3005 14.5229 23.2734 14.4828 23.2548 14.4385C23.2363 14.3942 23.2267 14.3467 23.2266 14.2986C23.2264 14.2506 23.2358 14.2031 23.2541 14.1587C23.2724 14.1143 23.2994 14.074 23.3333 14.04C23.3673 14.0061 23.4076 13.9792 23.452 13.9608C23.4963 13.9425 23.5439 13.9331 23.5919 13.9333C23.6399 13.9334 23.6874 13.943 23.7317 13.9615C23.776 13.98 23.8162 14.0071 23.85 14.0412L24.4178 14.609L26.5125 12.5143C26.5462 12.4797 26.5864 12.4522 26.6308 12.4334C26.6752 12.4145 26.7229 12.4046 26.7712 12.4043C26.8194 12.404 26.8673 12.4133 26.9119 12.4316C26.9565 12.4499 26.9971 12.4769 27.0312 12.5111C27.0653 12.5452 27.0923 12.5857 27.1106 12.6304C27.129 12.675 27.1383 12.7228 27.1379 12.7711C27.1376 12.8193 27.1278 12.867 27.1089 12.9114C27.09 12.9558 27.0625 12.996 27.028 13.0297L24.6755 15.382C24.6418 15.4161 24.6017 15.4431 24.5574 15.4616C24.5132 15.4801 24.4657 15.4896 24.4178 15.4896C24.3699 15.4896 24.3224 15.4801 24.2782 15.4616C24.2339 15.4431 24.1938 15.4161 24.1601 15.382L23.3346 14.5567Z" fill="#60B7FF"/>
<path fill-rule="evenodd" clip-rule="evenodd" d="M13.3707 12.6953H21.1257C21.1394 12.6956 21.1526 12.7012 21.1623 12.7109C21.1721 12.7207 21.1777 12.7338 21.178 12.7476V15.1485C21.178 15.1553 21.1766 15.1622 21.174 15.1685C21.1714 15.1749 21.1676 15.1807 21.1627 15.1855C21.1578 15.1904 21.1521 15.1942 21.1457 15.1969C21.1393 15.1995 21.1325 15.2008 21.1257 15.2008H13.3707C13.3571 15.2005 13.3442 15.1948 13.3348 15.185C13.3253 15.1752 13.3201 15.1621 13.3203 15.1485V12.7476C13.3205 12.7341 13.3258 12.7212 13.3351 12.7115C13.3445 12.7018 13.3572 12.696 13.3707 12.6953Z" fill="#60B7FF"/>
<path fill-rule="evenodd" clip-rule="evenodd" d="M13.3707 16.6016H21.1257C21.1325 16.6015 21.1393 16.6029 21.1457 16.6055C21.1521 16.6081 21.1578 16.612 21.1627 16.6169C21.1676 16.6217 21.1714 16.6275 21.174 16.6339C21.1766 16.6402 21.178 16.647 21.178 16.6539V19.0548C21.178 19.0617 21.1766 19.0685 21.174 19.0749C21.1714 19.0812 21.1676 19.087 21.1627 19.0919C21.1578 19.0967 21.1521 19.1006 21.1457 19.1032C21.1393 19.1058 21.1325 19.1072 21.1257 19.1071H13.3707C13.3571 19.1068 13.3442 19.1011 13.3348 19.0913C13.3253 19.0815 13.3202 19.0684 13.3203 19.0548V16.654C13.3201 16.6404 13.3253 16.6273 13.3348 16.6175C13.3442 16.6077 13.3571 16.6019 13.3707 16.6016Z" fill="#E6404D"/>
<path fill-rule="evenodd" clip-rule="evenodd" d="M13.3707 20.5059H21.1257C21.1325 20.5058 21.1394 20.5072 21.1457 20.5098C21.1521 20.5124 21.1579 20.5163 21.1627 20.5211C21.1676 20.526 21.1714 20.5318 21.174 20.5382C21.1767 20.5445 21.178 20.5513 21.178 20.5582V22.9591C21.178 22.966 21.1767 22.9728 21.174 22.9791C21.1714 22.9855 21.1676 22.9913 21.1627 22.9962C21.1579 23.001 21.1521 23.0049 21.1457 23.0075C21.1394 23.0101 21.1325 23.0115 21.1257 23.0114H13.3707C13.3571 23.0111 13.3442 23.0054 13.3348 22.9956C13.3253 22.9858 13.3201 22.9727 13.3203 22.9591V20.5582C13.3201 20.5446 13.3253 20.5315 13.3348 20.5217C13.3442 20.5119 13.3571 20.5062 13.3707 20.5059Z" fill="#60B7FF"/>
<path fill-rule="evenodd" clip-rule="evenodd" d="M13.3707 24.4102H21.1257C21.1325 24.4101 21.1394 24.4115 21.1457 24.4141C21.1521 24.4167 21.1579 24.4206 21.1627 24.4254C21.1676 24.4303 21.1714 24.4361 21.174 24.4425C21.1767 24.4488 21.178 24.4556 21.178 24.4625V26.8634C21.178 26.8702 21.1766 26.8771 21.174 26.8834C21.1714 26.8898 21.1676 26.8955 21.1627 26.9004C21.1578 26.9053 21.1521 26.9091 21.1457 26.9117C21.1393 26.9144 21.1325 26.9157 21.1257 26.9157H13.3707C13.3571 26.9153 13.3442 26.9096 13.3348 26.8999C13.3253 26.8901 13.3202 26.877 13.3203 26.8634V24.4625C13.3201 24.4489 13.3253 24.4358 13.3348 24.426C13.3442 24.4162 13.3571 24.4105 13.3707 24.4102Z" fill="#E6404D"/>
<path d="M9.81445 19.9707H11.4054V24.2609H9.81445V19.9707Z" fill="#BEC7CF"/>
<path fill-rule="evenodd" clip-rule="evenodd" d="M10.6102 20.7378C11.6166 20.7377 12.6004 20.4393 13.4372 19.8801C14.274 19.321 14.9262 18.5263 15.3114 17.5964C15.6965 16.6666 15.7973 15.6435 15.6009 14.6564C15.4046 13.6693 14.9199 12.7626 14.2082 12.0509C13.4966 11.3393 12.5899 10.8547 11.6028 10.6583C10.6157 10.462 9.59256 10.5628 8.66275 10.9479C7.73293 11.333 6.9382 11.9853 6.37906 12.8221C5.81992 13.6589 5.52148 14.6427 5.52148 15.6492C5.52409 16.9979 6.06105 18.2908 7.0148 19.2445C7.96855 20.1982 9.26136 20.7352 10.6102 20.7378Z" fill="#FEDA43"/>
<path fill-rule="evenodd" clip-rule="evenodd" d="M9.81483 23.334H11.4057C11.5936 23.3347 11.7735 23.4097 11.9064 23.5425C12.0392 23.6754 12.1142 23.8553 12.1149 24.0432V30.2538C12.1145 30.4418 12.0396 30.6219 11.9067 30.7548C11.7738 30.8877 11.5937 30.9626 11.4057 30.963H9.81483C9.62685 30.9626 9.44668 30.8878 9.31374 30.7548C9.18081 30.6219 9.10592 30.4418 9.10547 30.2538V24.0432C9.10622 23.8553 9.18119 23.6754 9.31403 23.5425C9.44688 23.4097 9.62683 23.3347 9.8147 23.334H9.81483Z" fill="#006694"/>
<path fill-rule="evenodd" clip-rule="evenodd" d="M10.6101 19.2612C11.3245 19.2612 12.0228 19.0493 12.6168 18.6525C13.2108 18.2556 13.6738 17.6914 13.9472 17.0314C14.2206 16.3714 14.2921 15.6451 14.1527 14.9445C14.0133 14.2438 13.6693 13.6002 13.1642 13.095C12.659 12.5899 12.0154 12.2459 11.3147 12.1065C10.614 11.9671 9.88779 12.0387 9.22777 12.3121C8.56776 12.5855 8.00364 13.0485 7.60675 13.6425C7.20986 14.2365 6.99803 14.9348 6.99805 15.6492C7.00011 16.6066 7.38132 17.5241 8.05827 18.201C8.73521 18.878 9.65275 19.2592 10.6101 19.2612Z" fill="#EAF6FF"/>
<path fill-rule="evenodd" clip-rule="evenodd" d="M28.4386 9.94141V29.0068C28.4383 29.0343 28.4271 29.0605 28.4075 29.0797C28.3879 29.0989 28.3614 29.1096 28.334 29.1094H29.3765C29.4037 29.1092 29.4296 29.0983 29.4488 29.0791C29.468 29.0599 29.4789 29.034 29.4791 29.0068V9.94141H28.4386Z" fill="#D3DDE6"/>
<path fill-rule="evenodd" clip-rule="evenodd" d="M20.0566 15.2008V12.6953H21.1263C21.1401 12.6956 21.1533 12.7012 21.163 12.7109C21.1728 12.7207 21.1784 12.7338 21.1786 12.7476V15.1485C21.1786 15.1553 21.1773 15.1622 21.1747 15.1685C21.1721 15.1749 21.1682 15.1807 21.1634 15.1855C21.1585 15.1904 21.1527 15.1942 21.1464 15.1969C21.14 15.1995 21.1332 15.2008 21.1263 15.2008H20.0566Z" fill="#56A5E6"/>
<path fill-rule="evenodd" clip-rule="evenodd" d="M20.0566 19.1071V16.6016H21.1263C21.1332 16.6015 21.14 16.6029 21.1464 16.6055C21.1527 16.6081 21.1585 16.612 21.1634 16.6169C21.1682 16.6217 21.1721 16.6275 21.1747 16.6339C21.1773 16.6402 21.1786 16.647 21.1786 16.6539V19.0548C21.1783 19.0686 21.1727 19.0818 21.163 19.0915C21.1533 19.1013 21.1401 19.1069 21.1263 19.1071H20.0566Z" fill="#CF3A45"/>
<path fill-rule="evenodd" clip-rule="evenodd" d="M20.0566 23.0114V20.5059H21.1263C21.1332 20.5058 21.14 20.5072 21.1464 20.5098C21.1527 20.5124 21.1585 20.5163 21.1634 20.5211C21.1683 20.526 21.1721 20.5318 21.1747 20.5382C21.1773 20.5445 21.1787 20.5513 21.1786 20.5582V22.9591C21.1787 22.966 21.1773 22.9728 21.1747 22.9791C21.1721 22.9855 21.1683 22.9913 21.1634 22.9962C21.1585 23.001 21.1527 23.0049 21.1464 23.0075C21.14 23.0101 21.1332 23.0115 21.1263 23.0114H20.0566Z" fill="#56A5E6"/>
<path fill-rule="evenodd" clip-rule="evenodd" d="M20.0566 26.9157V24.4102H21.1263C21.1332 24.4101 21.14 24.4115 21.1464 24.4141C21.1527 24.4167 21.1585 24.4206 21.1634 24.4254C21.1683 24.4303 21.1721 24.4361 21.1747 24.4425C21.1773 24.4488 21.1787 24.4556 21.1786 24.4625V26.8634C21.1786 26.8702 21.1773 26.8771 21.1747 26.8834C21.1721 26.8898 21.1682 26.8955 21.1634 26.9004C21.1585 26.9053 21.1527 26.9091 21.1464 26.9117C21.14 26.9144 21.1332 26.9157 21.1263 26.9157H20.0566Z" fill="#CF3A45"/>
<path fill-rule="evenodd" clip-rule="evenodd" d="M10.6101 12.0876C9.84577 12.2183 9.1439 12.5917 8.60848 13.1526C8.07307 13.7135 7.7326 14.432 7.63755 15.2015C7.61964 15.3501 7.61051 15.4995 7.61021 15.6492C7.61038 15.9711 7.65271 16.2916 7.73612 16.6025C7.78113 16.7628 7.83616 16.92 7.90087 17.0734C8.13896 17.627 8.51142 18.1123 8.98451 18.4856C9.45759 18.8588 10.0163 19.108 10.6101 19.2107C10.7108 19.2263 10.8135 19.2399 10.9163 19.2495C10.8155 19.2573 10.7147 19.2611 10.6101 19.2611C10.1357 19.2612 9.66598 19.1679 9.22771 18.9864C8.78943 18.8049 8.3912 18.5389 8.05577 18.2034C7.72034 17.868 7.45429 17.4698 7.2728 17.0315C7.09131 16.5933 6.99795 16.1235 6.99805 15.6492C6.99835 15.4995 7.00748 15.3501 7.02539 15.2015C7.13479 14.3279 7.5594 13.5243 8.21947 12.9416C8.87953 12.3589 9.72963 12.0373 10.6101 12.0371C10.7147 12.0371 10.8152 12.041 10.9163 12.0488C10.8137 12.0584 10.7112 12.072 10.6101 12.0876Z" fill="#D3DDE6"/>
<path fill-rule="evenodd" clip-rule="evenodd" d="M14.1706 12.696C14.6982 13.433 15.0175 14.2985 15.0949 15.2015C15.1086 15.3488 15.1143 15.498 15.1143 15.6492C15.1143 15.969 15.0845 16.2881 15.0254 16.6025C14.8255 17.6687 14.2888 18.6426 13.4942 19.381C12.6995 20.1195 11.689 20.5835 10.611 20.7048C10.5141 20.7164 10.4172 20.7242 10.3184 20.73C10.4153 20.7358 10.5141 20.7378 10.611 20.7378C11.3125 20.7405 12.0068 20.597 12.6498 20.3164C13.2927 20.0358 13.8701 19.6243 14.3451 19.1081C14.9943 18.4084 15.4335 17.5401 15.6124 16.6025C15.6715 16.2881 15.7012 15.969 15.7012 15.6492C15.7012 15.498 15.6935 15.3488 15.6818 15.2015C15.5702 13.9339 14.9876 12.7542 14.0489 11.895C13.1102 11.0359 11.8835 10.5597 10.611 10.5605C10.5141 10.5605 10.4153 10.5625 10.3184 10.5683C10.4172 10.5742 10.5141 10.582 10.611 10.5935C11.3185 10.6752 12.0009 10.9046 12.6141 11.2668C13.2273 11.629 13.7575 12.1159 14.1706 12.696Z" fill="#E5C43C"/>
<path fill-rule="evenodd" clip-rule="evenodd" d="M10.9238 20.73V23.3345H11.4063V20.6777C11.2474 20.701 11.0866 20.7184 10.9238 20.73Z" fill="#ABB3BA"/>
<path fill-rule="evenodd" clip-rule="evenodd" d="M11.4902 23.3402V30.9595C11.6625 30.9382 11.8211 30.8548 11.9363 30.725C12.0515 30.5951 12.1154 30.4278 12.1161 30.2542V24.0433C12.1151 23.87 12.0509 23.703 11.9358 23.5736C11.8206 23.4441 11.6622 23.361 11.4902 23.3398V23.3402Z" fill="#005C85"/>
</g>
<defs>
<clipPath id="clip0_1041_18386">
<rect width="35" height="35" fill="white" transform="translate(0 0.5)"/>
</clipPath>
</defs>
</svg>
