<svg width="11" height="12" viewBox="0 0 11 12" fill="none" xmlns="http://www.w3.org/2000/svg">
<path d="M3.125 10.2148V2.33984C3.125 2.10778 3.21719 1.88522 3.38128 1.72113C3.54538 1.55703 3.76794 1.46484 4 1.46484H7.5C7.73206 1.46484 7.95462 1.55703 8.11872 1.72113C8.28281 1.88522 8.375 2.10778 8.375 2.33984V10.2148H3.125Z" stroke="#51A2FF" stroke-width="0.875" stroke-linecap="round" stroke-linejoin="round"/>
<path d="M3.125 5.83984H2.25C2.01794 5.83984 1.79538 5.93203 1.63128 6.09613C1.46719 6.26022 1.375 6.48278 1.375 6.71484V9.33984C1.375 9.57191 1.46719 9.79447 1.63128 9.95856C1.79538 10.1227 2.01794 10.2148 2.25 10.2148H3.125" stroke="#51A2FF" stroke-width="0.875" stroke-linecap="round" stroke-linejoin="round"/>
<path d="M8.375 4.52734H9.25C9.48206 4.52734 9.70462 4.61953 9.86872 4.78363C10.0328 4.94772 10.125 5.17028 10.125 5.40234V9.33984C10.125 9.57191 10.0328 9.79447 9.86872 9.95856C9.70462 10.1227 9.48206 10.2148 9.25 10.2148H8.375" stroke="#51A2FF" stroke-width="0.875" stroke-linecap="round" stroke-linejoin="round"/>
<path d="M4.875 3.21484H6.625" stroke="#51A2FF" stroke-width="0.875" stroke-linecap="round" stroke-linejoin="round"/>
<path d="M4.875 4.96484H6.625" stroke="#51A2FF" stroke-width="0.875" stroke-linecap="round" stroke-linejoin="round"/>
<path d="M4.875 6.71484H6.625" stroke="#51A2FF" stroke-width="0.875" stroke-linecap="round" stroke-linejoin="round"/>
<path d="M4.875 8.46484H6.625" stroke="#51A2FF" stroke-width="0.875" stroke-linecap="round" stroke-linejoin="round"/>
</svg>
