<svg width="14" height="15" viewBox="0 0 14 15" fill="none" xmlns="http://www.w3.org/2000/svg">
<path d="M11.6673 8.33294C11.6673 11.2496 9.62565 12.7079 7.19898 13.5538C7.07191 13.5968 6.93388 13.5948 6.80815 13.5479C4.37565 12.7079 2.33398 11.2496 2.33398 8.33294V4.24961C2.33398 4.0949 2.39544 3.94653 2.50484 3.83713C2.61424 3.72774 2.76261 3.66628 2.91732 3.66628C4.08398 3.66628 5.54232 2.96628 6.55732 2.07961C6.6809 1.97403 6.83811 1.91602 7.00065 1.91602C7.16319 1.91602 7.3204 1.97403 7.44398 2.07961C8.46482 2.97211 9.91732 3.66628 11.084 3.66628C11.2387 3.66628 11.3871 3.72774 11.4965 3.83713C11.6059 3.94653 11.6673 4.0949 11.6673 4.24961V8.33294Z" stroke="#22C55E" stroke-width="1.16667" stroke-linecap="round" stroke-linejoin="round"/>
</svg>
