<svg width="32" height="33" viewBox="0 0 32 33" fill="none" xmlns="http://www.w3.org/2000/svg">
<circle cx="16" cy="16.5" r="16" fill="#FF8F00" fill-opacity="0.1"/>
<g clip-path="url(#clip0_721_20563)">
<path d="M20.5615 25.8346C19.1397 25.8346 17.3956 25.18 15.474 23.89C11.5888 21.2829 7.04208 15.9323 6.68969 12.3169C6.57701 11.1606 6.86697 10.2276 7.5517 9.54289L9.92662 7.16797L14.7625 12.0038L14.3758 12.3905C13.759 13.0075 12.7481 14.0161 12.0255 14.7339C12.6903 15.7102 13.9736 17.1529 14.9205 18.0998C15.8168 18.9953 16.8539 19.8105 17.7886 20.4348C18.462 19.757 19.3683 18.848 20.1095 18.1051L20.4968 17.7181L25.3326 22.555L22.9866 24.9011C22.3622 25.5254 21.5381 25.8346 20.5615 25.8346Z" fill="#FF8F00"/>
</g>
<defs>
<clipPath id="clip0_721_20563">
<rect width="18.6667" height="18.6667" fill="white" transform="translate(6.66602 7.16797)"/>
</clipPath>
</defs>
</svg>
