<svg width="32" height="33" viewBox="0 0 32 33" fill="none" xmlns="http://www.w3.org/2000/svg">
<g clip-path="url(#clip0_721_20568)">
<path d="M27.3378 5.15026C24.3296 2.15324 20.3296 0.501829 16.0679 0.5C7.28594 0.5 0.139228 7.613 0.135712 16.3559C0.134689 19.1506 0.868134 21.8786 2.26221 24.2833L0.00195312 32.5L8.44777 30.2951C10.7748 31.5586 13.3948 32.2244 16.061 32.2255H16.0678H16.0679C24.8484 32.2255 31.9962 25.1112 31.9999 16.3687C32.0014 12.1315 30.3456 8.14748 27.3378 5.15026ZM16.0679 29.5473H16.0627C13.6861 29.5461 11.3556 28.9109 9.32284 27.7099L8.83908 27.4244L3.82715 28.7327L5.16527 23.8694L4.85008 23.3708C3.52442 21.2722 2.82459 18.8471 2.82559 16.3569C2.8285 9.0901 8.76858 3.17822 16.0729 3.17822C19.61 3.17968 22.9345 4.55235 25.4348 7.04338C27.935 9.53438 29.3108 12.8458 29.3098 16.3676C29.3067 23.6347 23.3664 29.5473 16.0679 29.5473Z" fill="#E0E0E0"/>
<path d="M0.732422 31.5884L2.88944 23.747C1.55869 21.4521 0.858887 18.8485 0.859727 16.182C0.863216 7.83866 7.68354 1.05078 16.0636 1.05078C20.1308 1.05261 23.9482 2.6285 26.8183 5.48869C29.6891 8.34885 31.269 12.1506 31.2674 16.1938C31.2639 24.5374 24.4432 31.3259 16.0642 31.3259C16.0636 31.3259 16.0646 31.3259 16.0642 31.3259H16.0574C13.513 31.3251 11.0128 30.6892 8.79228 29.4843L0.732422 31.5884Z" fill="url(#paint0_linear_721_20568)"/>
<path fill-rule="evenodd" clip-rule="evenodd" d="M12.1309 9.62363C11.8361 8.97118 11.5258 8.95812 11.2453 8.9467C11.016 8.93691 10.7534 8.93751 10.4912 8.93751C10.2288 8.93751 9.80248 9.03567 9.44192 9.42771C9.08116 9.81976 8.06445 10.7675 8.06445 12.695C8.06445 14.6227 9.47472 16.4854 9.67129 16.747C9.86807 17.0082 12.3936 21.0902 16.3934 22.6606C19.7176 23.9657 20.3941 23.7061 21.1156 23.6408C21.8371 23.5755 23.4437 22.6933 23.7717 21.7784C24.0997 20.8637 24.0997 20.0796 24.0013 19.9157C23.9029 19.7525 23.6405 19.6545 23.247 19.4586C22.8534 19.2627 20.9188 18.3147 20.558 18.1841C20.1973 18.0535 19.9349 17.9882 19.6725 18.3804C19.4101 18.7723 18.6564 19.6545 18.4268 19.9157C18.1973 20.1775 17.9677 20.2102 17.5741 20.0143C17.1806 19.8178 15.9132 19.4045 14.4096 18.0698C13.2398 17.0314 12.45 15.749 12.2204 15.3568C11.9908 14.9649 12.1958 14.7527 12.3932 14.5574C12.5699 14.3819 12.7868 14.1 12.9836 13.8713C13.1799 13.6425 13.2455 13.4792 13.3767 13.218C13.5079 12.9564 13.4423 12.7276 13.3439 12.5317C13.2455 12.3358 12.4808 10.3983 12.1309 9.62363Z" fill="white"/>
<path d="M27.2075 5.1008C24.2339 2.13818 20.2798 0.505761 16.0671 0.503906C7.38592 0.503906 0.321247 7.53525 0.317758 16.1778C0.316735 18.9404 1.04176 21.6371 2.41983 24.0142L0.185547 32.1365L8.53441 29.957C10.8347 31.2059 13.4246 31.8641 16.0603 31.8651H16.067H16.0671C24.7468 31.8651 31.8124 24.8325 31.8161 16.1904C31.8176 12.0019 30.1808 8.06362 27.2075 5.1008ZM16.0671 29.2178H16.0619C13.7127 29.2166 11.4089 28.5886 9.39944 27.4015L8.92121 27.1193L3.96682 28.4125L5.28956 23.605L4.97799 23.1122C3.66756 21.0377 2.97575 18.6404 2.97678 16.1788C2.97964 8.99545 8.85152 3.15143 16.072 3.15143C19.5686 3.15287 22.8548 4.50978 25.3265 6.97221C27.7979 9.43464 29.158 12.708 29.1569 16.1894C29.1539 23.373 23.2818 29.2178 16.0671 29.2178Z" fill="white"/>
</g>
<defs>
<linearGradient id="paint0_linear_721_20568" x1="15.9999" y1="31.5884" x2="15.9999" y2="1.05083" gradientUnits="userSpaceOnUse">
<stop stop-color="#20B038"/>
<stop offset="1" stop-color="#60D66A"/>
</linearGradient>
<clipPath id="clip0_721_20568">
<rect width="32" height="32" fill="white" transform="translate(0 0.5)"/>
</clipPath>
</defs>
</svg>
