<svg width="70" height="70" viewBox="0 0 70 70" fill="none" xmlns="http://www.w3.org/2000/svg">
<rect width="70" height="70" rx="35" fill="#DCFCE7"/>
<path d="M49.2949 32.0837C49.9609 35.3523 49.4863 38.7504 47.9501 41.7114C46.414 44.6723 43.9091 47.0172 40.8534 48.3548C37.7976 49.6925 34.3756 49.9422 31.1581 49.0622C27.9405 48.1822 25.1219 46.2258 23.1722 43.5192C21.2225 40.8125 20.2597 37.5193 20.4442 34.1887C20.6288 30.8581 21.9495 27.6914 24.1863 25.2167C26.423 22.742 29.4406 21.109 32.7356 20.5898C36.0307 20.0707 39.4042 20.6969 42.2935 22.364" stroke="#00A63E" stroke-width="2.91667" stroke-linecap="round" stroke-linejoin="round"/>
<path d="M30.625 33.5423L35 37.9173L49.5833 23.334" stroke="#00A63E" stroke-width="2.91667" stroke-linecap="round" stroke-linejoin="round"/>
</svg>
