<svg width="21" height="23" viewBox="0 0 21 23" fill="none" xmlns="http://www.w3.org/2000/svg">
<rect y="1.83984" width="21" height="21" rx="10.5" fill="#DCFCE7"/>
<path d="M14.5846 11.3197C14.5846 13.8682 11.7574 16.5223 10.8081 17.3421C10.7196 17.4086 10.612 17.4445 10.5013 17.4445C10.3906 17.4445 10.283 17.4086 10.1945 17.3421C9.24517 16.5223 6.41797 13.8682 6.41797 11.3197C6.41797 10.2367 6.84818 9.19808 7.61395 8.43231C8.37972 7.66654 9.41833 7.23633 10.5013 7.23633C11.5843 7.23633 12.6229 7.66654 13.3887 8.43231C14.1544 9.19808 14.5846 10.2367 14.5846 11.3197Z" stroke="#155DFC" stroke-width="1.02083" stroke-linecap="round" stroke-linejoin="round"/>
<path d="M10.5 12.8496C11.3457 12.8496 12.0312 12.164 12.0312 11.3184C12.0312 10.4727 11.3457 9.78711 10.5 9.78711C9.65431 9.78711 8.96875 10.4727 8.96875 11.3184C8.96875 12.164 9.65431 12.8496 10.5 12.8496Z" stroke="#155DFC" stroke-width="1.02083" stroke-linecap="round" stroke-linejoin="round"/>
</svg>
