<svg width="18" height="18" viewBox="0 0 18 18" fill="none" xmlns="http://www.w3.org/2000/svg">
<path d="M10.5845 12.4213C10.7351 12.4905 10.9048 12.5063 11.0656 12.4661C11.2263 12.426 11.3686 12.3322 11.469 12.2004L11.7279 11.8613C11.8637 11.6802 12.0398 11.5332 12.2423 11.432C12.4448 11.3307 12.6681 11.278 12.8945 11.278H15.082C15.4688 11.278 15.8397 11.4316 16.1132 11.7051C16.3867 11.9786 16.5404 12.3496 16.5404 12.7363V14.9238C16.5404 15.3106 16.3867 15.6815 16.1132 15.955C15.8397 16.2285 15.4688 16.3822 15.082 16.3822C11.6011 16.3822 8.26267 14.9994 5.80125 12.5379C3.33984 10.0765 1.95703 6.73813 1.95703 3.25716C1.95703 2.87039 2.11068 2.49945 2.38417 2.22596C2.65766 1.95247 3.02859 1.79883 3.41536 1.79883H5.60286C5.98964 1.79883 6.36057 1.95247 6.63406 2.22596C6.90755 2.49945 7.0612 2.87039 7.0612 3.25716V5.44466C7.0612 5.67106 7.00849 5.89435 6.90724 6.09685C6.80599 6.29935 6.65898 6.47549 6.47786 6.61133L6.13661 6.86727C6.00275 6.96948 5.9084 7.11488 5.86959 7.27877C5.83077 7.44266 5.84989 7.61494 5.9237 7.76633C6.92024 9.7904 8.55922 11.4273 10.5845 12.4213Z" stroke="#4A5565" stroke-width="1.45833" stroke-linecap="round" stroke-linejoin="round"/>
</svg>
