<svg width="21" height="24" viewBox="0 0 21 24" fill="none" xmlns="http://www.w3.org/2000/svg">
<rect y="2.33984" width="21" height="21" rx="10.5" fill="#DCFCE7"/>
<path d="M11.4338 15.1721C11.5392 15.2205 11.658 15.2316 11.7705 15.2034C11.883 15.1753 11.9827 15.1097 12.0529 15.0174L12.2341 14.7801C12.3292 14.6533 12.4525 14.5504 12.5943 14.4795C12.736 14.4086 12.8923 14.3717 13.0508 14.3717H14.582C14.8528 14.3717 15.1124 14.4793 15.3039 14.6707C15.4953 14.8622 15.6029 15.1218 15.6029 15.3926V16.9238C15.6029 17.1946 15.4953 17.4542 15.3039 17.6457C15.1124 17.8371 14.8528 17.9447 14.582 17.9447C12.1454 17.9447 9.80848 16.9767 8.08549 15.2537C6.3625 13.5307 5.39453 11.1938 5.39453 8.75716C5.39453 8.48642 5.50208 8.22677 5.69353 8.03532C5.88497 7.84388 6.14462 7.73633 6.41536 7.73633H7.94661C8.21736 7.73633 8.47701 7.84388 8.66845 8.03532C8.8599 8.22677 8.96745 8.48642 8.96745 8.75716V10.2884C8.96745 10.4469 8.93055 10.6032 8.85968 10.7449C8.7888 10.8867 8.6859 11.01 8.55911 11.1051L8.32024 11.2842C8.22654 11.3558 8.16049 11.4576 8.13332 11.5723C8.10615 11.687 8.11954 11.8076 8.1712 11.9136C8.86877 13.3304 10.0161 14.4763 11.4338 15.1721Z" stroke="#155DFC" stroke-width="1.02083" stroke-linecap="round" stroke-linejoin="round"/>
</svg>
