<svg width="13" height="14" viewBox="0 0 13 14" fill="none" xmlns="http://www.w3.org/2000/svg">
<path d="M7.56802 9.91597C7.68849 9.9713 7.82422 9.98394 7.95284 9.95181C8.08145 9.91968 8.19529 9.8447 8.2756 9.73922L8.48268 9.46797C8.59135 9.32307 8.73227 9.20547 8.89427 9.12447C9.05626 9.04347 9.2349 9.0013 9.41602 9.0013H11.166C11.4754 9.0013 11.7722 9.12422 11.991 9.34301C12.2098 9.5618 12.3327 9.85855 12.3327 10.168V11.918C12.3327 12.2274 12.2098 12.5241 11.991 12.7429C11.7722 12.9617 11.4754 13.0846 11.166 13.0846C8.38124 13.0846 5.71053 11.9784 3.74139 10.0093C1.77226 8.04012 0.666016 5.36941 0.666016 2.58464C0.666016 2.27522 0.788932 1.97847 1.00772 1.75968C1.22652 1.54089 1.52326 1.41797 1.83268 1.41797H3.58268C3.8921 1.41797 4.18885 1.54089 4.40764 1.75968C4.62643 1.97847 4.74935 2.27522 4.74935 2.58464V4.33464C4.74935 4.51575 4.70718 4.69439 4.62618 4.85638C4.54518 5.01838 4.42758 5.1593 4.28268 5.26797L4.00968 5.47272C3.90259 5.55449 3.82711 5.67081 3.79606 5.80192C3.76501 5.93304 3.78031 6.07085 3.83935 6.19197C4.63658 7.81122 5.94776 9.12077 7.56802 9.91597Z" stroke="white" stroke-width="1.16667" stroke-linecap="round" stroke-linejoin="round"/>
</svg>
