<svg width="42" height="43" viewBox="0 0 42 43" fill="none" xmlns="http://www.w3.org/2000/svg">
<rect y="0.5" width="42" height="42" rx="14" fill="#E0F2FE"/>
<path d="M26.25 12.75H15.75C14.7835 12.75 14 13.5335 14 14.5V28.5C14 29.4665 14.7835 30.25 15.75 30.25H26.25C27.2165 30.25 28 29.4665 28 28.5V14.5C28 13.5335 27.2165 12.75 26.25 12.75Z" stroke="#155DFC" stroke-width="1.75" stroke-linecap="round" stroke-linejoin="round"/>
<path d="M18.375 30.25V26.75H23.625V30.25" stroke="#155DFC" stroke-width="1.75" stroke-linecap="round" stroke-linejoin="round"/>
<path d="M17.5 16.25H17.5088" stroke="#155DFC" stroke-width="1.75" stroke-linecap="round" stroke-linejoin="round"/>
<path d="M24.5 16.25H24.5088" stroke="#155DFC" stroke-width="1.75" stroke-linecap="round" stroke-linejoin="round"/>
<path d="M21 16.25H21.0088" stroke="#155DFC" stroke-width="1.75" stroke-linecap="round" stroke-linejoin="round"/>
<path d="M21 19.75H21.0088" stroke="#155DFC" stroke-width="1.75" stroke-linecap="round" stroke-linejoin="round"/>
<path d="M21 23.25H21.0088" stroke="#155DFC" stroke-width="1.75" stroke-linecap="round" stroke-linejoin="round"/>
<path d="M24.5 19.75H24.5088" stroke="#155DFC" stroke-width="1.75" stroke-linecap="round" stroke-linejoin="round"/>
<path d="M24.5 23.25H24.5088" stroke="#155DFC" stroke-width="1.75" stroke-linecap="round" stroke-linejoin="round"/>
<path d="M17.5 19.75H17.5088" stroke="#155DFC" stroke-width="1.75" stroke-linecap="round" stroke-linejoin="round"/>
<path d="M17.5 23.25H17.5088" stroke="#155DFC" stroke-width="1.75" stroke-linecap="round" stroke-linejoin="round"/>
</svg>
