<svg width="62" height="63" viewBox="0 0 62 63" fill="none" xmlns="http://www.w3.org/2000/svg">
<g filter="url(#filter0_dd_721_14917)">
<rect x="3" y="2.25" width="56" height="56" rx="28" fill="white"/>
<path d="M42.4344 27.9174C42.9672 30.5322 42.5875 33.2507 41.3585 35.6195C40.1296 37.9882 38.1257 39.8641 35.6811 40.9343C33.2365 42.0044 30.4989 42.2041 27.9249 41.5002C25.3508 40.7962 23.0959 39.231 21.5362 37.0657C19.9765 34.9004 19.2062 32.2658 19.3538 29.6013C19.5014 26.9368 20.5581 24.4035 22.3475 22.4238C24.1369 20.444 26.5509 19.1376 29.1869 18.7222C31.823 18.3069 34.5218 18.8079 36.8332 20.1416" stroke="#00A63E" stroke-width="2.5" stroke-linecap="round" stroke-linejoin="round"/>
<path d="M27.5 29.0827L31 32.5827L42.6667 20.916" stroke="#00A63E" stroke-width="2.5" stroke-linecap="round" stroke-linejoin="round"/>
</g>
<defs>
<filter id="filter0_dd_721_14917" x="0" y="0.25" width="62" height="62" filterUnits="userSpaceOnUse" color-interpolation-filters="sRGB">
<feFlood flood-opacity="0" result="BackgroundImageFix"/>
<feColorMatrix in="SourceAlpha" type="matrix" values="0 0 0 0 0 0 0 0 0 0 0 0 0 0 0 0 0 0 127 0" result="hardAlpha"/>
<feMorphology radius="1" operator="erode" in="SourceAlpha" result="effect1_dropShadow_721_14917"/>
<feOffset dy="1"/>
<feGaussianBlur stdDeviation="1"/>
<feComposite in2="hardAlpha" operator="out"/>
<feColorMatrix type="matrix" values="0 0 0 0 0 0 0 0 0 0 0 0 0 0 0 0 0 0 0.1 0"/>
<feBlend mode="normal" in2="BackgroundImageFix" result="effect1_dropShadow_721_14917"/>
<feColorMatrix in="SourceAlpha" type="matrix" values="0 0 0 0 0 0 0 0 0 0 0 0 0 0 0 0 0 0 127 0" result="hardAlpha"/>
<feOffset dy="1"/>
<feGaussianBlur stdDeviation="1.5"/>
<feComposite in2="hardAlpha" operator="out"/>
<feColorMatrix type="matrix" values="0 0 0 0 0 0 0 0 0 0 0 0 0 0 0 0 0 0 0.1 0"/>
<feBlend mode="normal" in2="effect1_dropShadow_721_14917" result="effect2_dropShadow_721_14917"/>
<feBlend mode="normal" in="SourceGraphic" in2="effect2_dropShadow_721_14917" result="shape"/>
</filter>
</defs>
</svg>
