<svg width="28" height="29" viewBox="0 0 28 29" fill="none" xmlns="http://www.w3.org/2000/svg">
<g clip-path="url(#clip0_782_42467)">
<path d="M14.0007 2.41797C7.54898 2.41797 2.33398 7.63297 2.33398 14.0846C2.33398 20.5363 7.54898 25.7513 14.0007 25.7513C20.4523 25.7513 25.6673 20.5363 25.6673 14.0846C25.6673 7.63297 20.4523 2.41797 14.0007 2.41797ZM19.0173 19.1013C18.5623 19.5563 17.8273 19.5563 17.3723 19.1013L14.0007 15.7296L10.629 19.1013C10.174 19.5563 9.43898 19.5563 8.98398 19.1013C8.52898 18.6463 8.52898 17.9113 8.98398 17.4563L12.3557 14.0846L8.98398 10.713C8.52898 10.258 8.52898 9.52297 8.98398 9.06797C9.43898 8.61297 10.174 8.61297 10.629 9.06797L14.0007 12.4396L17.3723 9.06797C17.8273 8.61297 18.5623 8.61297 19.0173 9.06797C19.4723 9.52297 19.4723 10.258 19.0173 10.713L15.6457 14.0846L19.0173 17.4563C19.4607 17.8996 19.4607 18.6463 19.0173 19.1013Z" fill="#D7D7D7"/>
</g>
<defs>
<clipPath id="clip0_782_42467">
<rect width="28" height="28" fill="white" transform="translate(0 0.0859375)"/>
</clipPath>
</defs>
</svg>
