<svg width="35" height="35" viewBox="0 0 35 35" fill="none" xmlns="http://www.w3.org/2000/svg">
<rect width="35" height="35" rx="17.5" fill="black" fill-opacity="0.2"/>
<path d="M22.6029 24.0625V22.6042C22.6029 21.8306 22.2956 21.0888 21.7486 20.5418C21.2016 19.9948 20.4597 19.6875 19.6862 19.6875H15.3112C14.5376 19.6875 13.7958 19.9948 13.2488 20.5418C12.7018 21.0888 12.3945 21.8306 12.3945 22.6042V24.0625" stroke="white" stroke-width="1.45833" stroke-linecap="round" stroke-linejoin="round"/>
<path d="M17.4987 16.7708C19.1095 16.7708 20.4154 15.465 20.4154 13.8542C20.4154 12.2433 19.1095 10.9375 17.4987 10.9375C15.8879 10.9375 14.582 12.2433 14.582 13.8542C14.582 15.465 15.8879 16.7708 17.4987 16.7708Z" stroke="white" stroke-width="1.45833" stroke-linecap="round" stroke-linejoin="round"/>
</svg>
