<svg width="14" height="15" viewBox="0 0 14 15" fill="none" xmlns="http://www.w3.org/2000/svg">
<g clip-path="url(#clip0_782_41228)">
<path d="M10.0914 3.92574C9.86388 3.69824 9.49638 3.69824 9.26888 3.92574L5.97888 7.21574L6.80138 8.03824L10.0914 4.7424C10.313 4.52074 10.313 4.1474 10.0914 3.92574ZM12.5647 3.9199L6.80138 9.68324L4.77138 7.65907C4.54388 7.43157 4.17638 7.43157 3.94888 7.65907C3.72138 7.88657 3.72138 8.25407 3.94888 8.48157L6.38721 10.9199C6.61471 11.1474 6.98221 11.1474 7.20971 10.9199L13.3872 4.74824C13.6147 4.52074 13.6147 4.15324 13.3872 3.92574H13.3814C13.1597 3.6924 12.7922 3.6924 12.5647 3.9199ZM0.653047 8.4874L3.09138 10.9257C3.31888 11.1532 3.68638 11.1532 3.91388 10.9257L4.32221 10.5174L1.47555 7.65907C1.24805 7.43157 0.880547 7.43157 0.653047 7.65907C0.425547 7.88657 0.425547 8.2599 0.653047 8.4874Z" fill="#30B502"/>
</g>
<defs>
<clipPath id="clip0_782_41228">
<rect width="14" height="14" fill="white" transform="translate(0 0.25)"/>
</clipPath>
</defs>
</svg>
