<svg width="43" height="43" viewBox="0 0 43 43" fill="none" xmlns="http://www.w3.org/2000/svg">
<rect x="0.5" y="0.878906" width="42" height="42" rx="14" fill="#ECF3FA"/>
<path d="M21.5 16.6289H17.4167C17.1072 16.6289 16.8105 16.7518 16.5917 16.9706C16.3729 17.1894 16.25 17.4862 16.25 17.7956V25.9622C16.25 26.2717 16.3729 26.5684 16.5917 26.7872C16.8105 27.006 17.1072 27.1289 17.4167 27.1289H25.5833C25.8928 27.1289 26.1895 27.006 26.4083 26.7872C26.6271 26.5684 26.75 26.2717 26.75 25.9622V21.8789" stroke="#45556C" stroke-width="1.2" stroke-linecap="round" stroke-linejoin="round"/>
<path d="M25.2185 16.4093C25.4505 16.1772 25.7653 16.0469 26.0935 16.0469C26.4217 16.0469 26.7364 16.1772 26.9685 16.4093C27.2005 16.6414 27.3309 16.9561 27.3309 17.2843C27.3309 17.6125 27.2005 17.9272 26.9685 18.1593L21.7109 23.4175C21.5724 23.5559 21.4013 23.6572 21.2133 23.7121L19.5374 24.2021C19.4872 24.2167 19.434 24.2176 19.3833 24.2046C19.3327 24.1916 19.2865 24.1653 19.2495 24.1283C19.2125 24.0913 19.1862 24.0451 19.1732 23.9944C19.1602 23.9438 19.1611 23.8906 19.1757 23.8404L19.6657 22.1645C19.7209 21.9767 19.8224 21.8058 19.9609 21.6675L25.2185 16.4093Z" stroke="#45556C" stroke-width="1.2" stroke-linecap="round" stroke-linejoin="round"/>
</svg>
