<svg width="18" height="18" viewBox="0 0 18 18" fill="none" xmlns="http://www.w3.org/2000/svg">
<path d="M7.54206 14.8333C7.54199 14.9688 7.57969 15.1017 7.65091 15.2169C7.72214 15.3322 7.82407 15.4254 7.94528 15.4859L9.40362 16.2151C9.51481 16.2707 9.63837 16.2969 9.76254 16.2913C9.88672 16.2856 10.0074 16.2484 10.1131 16.183C10.2188 16.1176 10.3061 16.0263 10.3666 15.9177C10.4271 15.8091 10.4588 15.6868 10.4587 15.5625V10.4583C10.4589 10.0969 10.5932 9.74849 10.8357 9.48052L16.1025 3.65521C16.1969 3.55062 16.2589 3.42092 16.2812 3.28179C16.3034 3.14267 16.2849 3.00008 16.2278 2.87126C16.1707 2.74245 16.0776 2.63293 15.9596 2.55595C15.8416 2.47898 15.7038 2.43783 15.5629 2.4375H2.43789C2.29687 2.43755 2.1589 2.47849 2.04067 2.55536C1.92245 2.63223 1.82906 2.74173 1.7718 2.8706C1.71454 2.99947 1.69588 3.14217 1.71807 3.28143C1.74027 3.42069 1.80237 3.55052 1.89685 3.65521L7.16508 9.48052C7.40755 9.74849 7.54189 10.0969 7.54206 10.4583V14.8333Z" stroke="white" stroke-width="1.45833" stroke-linecap="round" stroke-linejoin="round"/>
</svg>
