<svg width="35" height="36" viewBox="0 0 35 36" fill="none" xmlns="http://www.w3.org/2000/svg">
<rect y="0.75" width="35" height="35" rx="17.5" fill="#F3F4F6"/>
<path d="M22.6048 24.8125V23.3542C22.6048 22.5806 22.2975 21.8388 21.7505 21.2918C21.2036 20.7448 20.4617 20.4375 19.6882 20.4375H15.3132C14.5396 20.4375 13.7977 20.7448 13.2508 21.2918C12.7038 21.8388 12.3965 22.5806 12.3965 23.3542V24.8125" stroke="#4A5565" stroke-width="1.45833" stroke-linecap="round" stroke-linejoin="round"/>
<path d="M17.5007 17.5208C19.1115 17.5208 20.4173 16.215 20.4173 14.6042C20.4173 12.9933 19.1115 11.6875 17.5007 11.6875C15.8898 11.6875 14.584 12.9933 14.584 14.6042C14.584 16.215 15.8898 17.5208 17.5007 17.5208Z" stroke="#4A5565" stroke-width="1.45833" stroke-linecap="round" stroke-linejoin="round"/>
</svg>
